<svg width="532" height="218" viewBox="0 0 532 218" fill="none" xmlns="http://www.w3.org/2000/svg">
    <path
        d="M0 65.918C0 57.2266 1.66016 49.0723 4.98047 41.4551C8.30078 33.8379 12.793 27.1973 18.457 21.5332C24.2188 15.7715 30.9082 11.2305 38.5254 7.91016C46.1426 4.58984 54.2969 2.92969 62.9883 2.92969H159.375V44.9707H62.9883C60.0586 44.9707 57.3242 45.5078 54.7852 46.582C52.2461 47.6562 50 49.1699 48.0469 51.123C46.1914 52.9785 44.7266 55.1758 43.6523 57.7148C42.5781 60.2539 42.041 62.9883 42.041 65.918C42.041 68.8477 42.5781 71.6309 43.6523 74.2676C44.7266 76.8066 46.1914 79.0527 48.0469 81.0059C50 82.8613 52.2461 84.3262 54.7852 85.4004C57.3242 86.4746 60.0586 87.0117 62.9883 87.0117H105.029C113.721 87.0117 121.875 88.6719 129.492 91.9922C137.207 95.2148 143.896 99.707 149.561 105.469C155.322 111.133 159.814 117.822 163.037 125.537C166.357 133.154 168.018 141.309 168.018 150C168.018 158.691 166.357 166.846 163.037 174.463C159.814 182.08 155.322 188.77 149.561 194.531C143.896 200.195 137.207 204.688 129.492 208.008C121.875 211.328 113.721 212.988 105.029 212.988H11.7188V170.947H105.029C107.959 170.947 110.693 170.41 113.232 169.336C115.771 168.262 117.969 166.797 119.824 164.941C121.777 162.988 123.291 160.742 124.365 158.203C125.439 155.664 125.977 152.93 125.977 150C125.977 147.07 125.439 144.336 124.365 141.797C123.291 139.258 121.777 137.061 119.824 135.205C117.969 133.252 115.771 131.738 113.232 130.664C110.693 129.59 107.959 129.053 105.029 129.053H62.9883C54.2969 129.053 46.1426 127.393 38.5254 124.072C30.9082 120.752 24.2188 116.26 18.457 110.596C12.793 104.834 8.30078 98.1445 4.98047 90.5273C1.66016 82.8125 0 74.6094 0 65.918ZM339.697 212.988H195.703V2.92969H339.697V44.9707H237.744V87.0117H306.738V129.053H237.744V170.947H339.697V212.988ZM531.592 191.455C521.826 199.854 510.889 206.299 498.779 210.791C486.67 215.283 474.121 217.529 461.133 217.529C451.172 217.529 441.553 216.211 432.275 213.574C423.096 211.035 414.453 207.422 406.348 202.734C398.34 197.949 391.016 192.236 384.375 185.596C377.734 178.955 372.021 171.631 367.236 163.623C362.549 155.518 358.887 146.875 356.25 137.695C353.711 128.418 352.441 118.799 352.441 108.838C352.441 98.877 353.711 89.2578 356.25 79.9805C358.887 70.7031 362.549 62.0605 367.236 54.0527C372.021 45.9473 377.734 38.5742 384.375 31.9336C391.016 25.293 398.34 19.6289 406.348 14.9414C414.453 10.1562 423.096 6.49414 432.275 3.95508C441.553 1.31836 451.172 0 461.133 0C474.121 0 486.67 2.24609 498.779 6.73828C510.889 11.1328 521.826 17.5781 531.592 26.0742L509.326 62.6953C503.174 56.0547 495.898 50.9766 487.5 47.4609C479.102 43.8477 470.312 42.041 461.133 42.041C451.855 42.041 443.164 43.7988 435.059 47.3145C426.953 50.8301 419.873 55.6152 413.818 61.6699C407.764 67.627 402.979 74.707 399.463 82.9102C395.947 91.0156 394.189 99.6582 394.189 108.838C394.189 118.018 395.947 126.66 399.463 134.766C402.979 142.773 407.764 149.805 413.818 155.859C419.873 161.914 426.953 166.699 435.059 170.215C443.164 173.73 451.855 175.488 461.133 175.488C470.312 175.488 479.102 173.73 487.5 170.215C495.898 166.602 503.174 161.475 509.326 154.834L531.592 191.455Z"
        fill="url(#paint0_linear_33_9)" />
    <defs>
        <linearGradient id="paint0_linear_33_9" x1="264.697" y1="-83.0117" x2="264.697" y2="289.988"
            gradientUnits="userSpaceOnUse">
            <stop stop-color="#333333" />
            <stop offset="1" stop-color="black" />
        </linearGradient>
    </defs>
</svg>
